<svg xmlns="http://www.w3.org/2000/svg" xmlns:xlink="http://www.w3.org/1999/xlink" xmlns:lucid="lucid" width="680" height="160"><g transform="translate(20 20)" lucid:page-tab-id="mXwzAnnOLpm1"><path d="M0 0h640v120H0z" stroke="#000" stroke-opacity="0" stroke-width="2" fill="url(#a)"/><use xlink:href="#b" transform="matrix(1,0,0,1,5,5) translate(64.29500000000041 70.99999999999993)"/><use xlink:href="#c" transform="matrix(1,0,0,1,5,5) translate(248.6190000000001 70.99999999999993)"/><defs><linearGradient gradientUnits="userSpaceOnUse" id="a" y1="120" x2="640" y2="60"><stop offset="0%" stop-color="#635dff" stop-opacity=".5"/><stop offset="49.19%" stop-color="#ba23f6" stop-opacity=".58"/><stop offset="100%" stop-color="#fcfcca"/></linearGradient><path d="M188-720h460c72 0 130 58 130 130V0H670v-252H166V0H58v-590c0-72 58-130 130-130zm-22 360h504v-230c0-12-10-22-22-22H188c-12 0-22 10-22 22v230zm170-568c3-51 53-56 110-53 52 3 57 50 54 107-3 51-53 56-110 53-52-3-57-50-54-107zm49 67h66c5 0 9-4 9-10v-60c0-6-4-10-9-10h-66c-5 0-9 4-9 10v60c0 6 4 10 9 10" id="d"/><path d="M514-580c72 0 130 58 130 130v320C644-58 586 0 514 0H162v230H54v-810h460zm22 450v-320c0-12-10-22-22-22H184c-12 0-22 10-22 22v320c0 12 10 22 22 22h330c12 0 22-10 22-22" id="e"/><path d="M514-580c72 0 130 58 130 130V0H536v-450c0-12-10-22-22-22H184c-12 0-22 10-22 22V0H54v-580h460" id="f"/><path d="M511-580c72 0 130 58 130 130v214H159v106c0 12 10 22 22 22h460V0H181C109 0 51-58 51-130v-320c0-72 58-130 130-130h330zM159-344h374v-106c0-12-10-22-22-22H181c-12 0-22 10-22 22v106" id="g"/><g id="b"><use transform="matrix(0.057999999999999906,0,0,0.057999999999999906,0,0)" xlink:href="#d"/><use transform="matrix(0.057999999999999906,0,0,0.057999999999999906,48.48799999999992,0)" xlink:href="#e"/><use transform="matrix(0.057999999999999906,0,0,0.057999999999999906,86.99999999999986,0)" xlink:href="#f"/><use transform="matrix(0.057999999999999906,0,0,0.057999999999999906,127.3679999999998,0)" xlink:href="#g"/></g><path d="M181-580h330c72 0 130 58 130 130v320C641-58 583 0 511 0H181C109 0 51-58 51-130v-320c0-72 58-130 130-130zm330 108H181c-12 0-22 10-22 22v320c0 12 10 22 22 22h330c12 0 22-10 22-22v-320c0-12-10-22-22-22" id="h"/><path d="M631-450v550c0 72-58 130-130 130H143V122h358c12 0 22-10 22-22V0H171C99 0 41-58 41-130v-320c0-72 58-130 130-130h330c72 0 130 58 130 130zM171-108h330c12 0 22-10 22-22v-320c0-12-10-22-22-22H171c-12 0-22 10-22 22v320c0 12 10 22 22 22" id="i"/><path d="M512-580c72 0 130 58 130 130V0H182C110 0 52-58 52-130v-214h482v-106c0-12-10-22-22-22H52v-108h460zm22 472v-128H160v106c0 12 10 22 22 22h352" id="j"/><path d="M645-580h124L449 0H341L21-580h125l249 458" id="k"/><g id="c"><use transform="matrix(0.057999999999999906,0,0,0.057999999999999906,0,0)" xlink:href="#h"/><use transform="matrix(0.057999999999999906,0,0,0.057999999999999906,40.13599999999993,0)" xlink:href="#e"/><use transform="matrix(0.057999999999999906,0,0,0.057999999999999906,78.64799999999987,0)" xlink:href="#e"/><use transform="matrix(0.057999999999999906,0,0,0.057999999999999906,117.1599999999998,0)" xlink:href="#i"/><use transform="matrix(0.057999999999999906,0,0,0.057999999999999906,156.48399999999972,0)" xlink:href="#j"/><use transform="matrix(0.057999999999999906,0,0,0.057999999999999906,194.41599999999966,0)" xlink:href="#k"/><use transform="matrix(0.057999999999999906,0,0,0.057999999999999906,236.5819999999996,0)" xlink:href="#g"/><use transform="matrix(0.057999999999999906,0,0,0.057999999999999906,276.7179999999995,0)" xlink:href="#f"/></g></defs></g></svg>