<svg xmlns="http://www.w3.org/2000/svg" xmlns:xlink="http://www.w3.org/1999/xlink" xmlns:lucid="lucid" width="1740" height="160"><g transform="translate(0 -60)" lucid:page-tab-id="mXwzAnnOLpm1"><path d="M20 80h1700v120H20z" stroke="#000" stroke-opacity="0" stroke-width="2" fill="url(#a)"/><use xlink:href="#b" transform="matrix(1,0,0,1,25,85) translate(586.5520000000005 70.99999999999993)"/><use xlink:href="#c" transform="matrix(1,0,0,1,25,85) translate(772.6740000000002 70.99999999999993)"/><defs><linearGradient gradientUnits="userSpaceOnUse" id="a" x1="20" y1="200" x2="1720" y2="140"><stop offset="0%" stop-color="#ff725e"/><stop offset="28.63%" stop-color="#ffb6ab"/><stop offset="100%" stop-color="#ffe3df"/></linearGradient><path d="M771-581v55H638v-55c0-4-3-7-6-7H190c-4 0-7 3-7 7v148c0 4 3 7 7 7h442c76 0 139 62 139 139v148C771-62 708 0 632 0H190C113 0 51-62 51-139v-55h132v55c0 4 3 7 7 7h442c3 0 6-3 6-7v-148c0-4-3-7-6-7H190c-77 0-139-62-139-139v-148c0-77 62-139 139-139h442c76 0 139 62 139 139" id="d"/><path d="M410-449H184v311c0 4 3 7 7 7h219V0H191C114 0 53-62 53-138v-632h131v190h226v131" id="e"/><path d="M503-580c76 0 138 62 138 138V0H190C114 0 52-62 52-138v-218h458v-86c0-4-3-7-7-7H52v-131h451zm7 449v-93H183v86c0 4 3 7 7 7h320" id="f"/><path d="M190-580h322v131H190c-4 0-7 3-7 7V0H52v-442c0-76 62-138 138-138" id="g"/><g id="b"><use transform="matrix(0.057999999999999906,0,0,0.057999999999999906,0,0)" xlink:href="#d"/><use transform="matrix(0.057999999999999906,0,0,0.057999999999999906,47.675999999999924,0)" xlink:href="#e"/><use transform="matrix(0.057999999999999906,0,0,0.057999999999999906,73.02199999999988,0)" xlink:href="#f"/><use transform="matrix(0.057999999999999906,0,0,0.057999999999999906,112.28799999999981,0)" xlink:href="#g"/><use transform="matrix(0.057999999999999906,0,0,0.057999999999999906,142.91199999999975,0)" xlink:href="#e"/></g><path d="M189-580h313c76 0 138 62 138 138v304C640-62 578 0 502 0H189C113 0 51-62 51-138v-304c0-76 62-138 138-138zm313 131H189c-4 0-7 3-7 7v304c0 4 3 7 7 7h313c4 0 7-3 7-7v-304c0-4-3-7-7-7" id="h"/><path d="M505-580c76 0 138 62 138 138v304C643-62 581 0 505 0H185v230H54v-810h451zm7 442v-304c0-4-3-7-7-7H192c-4 0-7 3-7 7v304c0 4 3 7 7 7h313c4 0 7-3 7-7" id="i"/><path d="M482-770h131V0H161C85 0 23-62 23-138v-304c0-76 62-138 138-138h321v-190zM161-131h314c4 0 7-3 7-7v-304c0-4-3-7-7-7H161c-4 0-6 3-6 7v304c0 4 2 7 6 7" id="j"/><path d="M630 92c0 76-61 138-137 138H138V98h355c3 0 6-2 6-6V0H179C103 0 41-62 41-138v-304c0-76 62-138 138-138h314c76 0 137 62 137 138V92zM179-131h314c3 0 6-3 6-7v-304c0-4-3-7-6-7H179c-4 0-7 3-7 7v304c0 4 3 7 7 7" id="k"/><path d="M502-580c76 0 138 62 138 138v218H182v86c0 4 3 7 7 7h451V0H189C113 0 51-62 51-138v-304c0-76 62-138 138-138h313zM182-356h327v-86c0-4-3-7-7-7H189c-4 0-7 3-7 7v86" id="l"/><g id="c"><use transform="matrix(0.057999999999999906,0,0,0.057999999999999906,0,0)" xlink:href="#h"/><use transform="matrix(0.057999999999999906,0,0,0.057999999999999906,40.13599999999993,0)" xlink:href="#i"/><use transform="matrix(0.057999999999999906,0,0,0.057999999999999906,78.64799999999987,0)" xlink:href="#i"/><use transform="matrix(0.057999999999999906,0,0,0.057999999999999906,117.1599999999998,0)" xlink:href="#j"/><use transform="matrix(0.057999999999999906,0,0,0.057999999999999906,155.55599999999973,0)" xlink:href="#g"/><use transform="matrix(0.057999999999999906,0,0,0.057999999999999906,187.62999999999965,0)" xlink:href="#f"/><use transform="matrix(0.057999999999999906,0,0,0.057999999999999906,227.01199999999957,0)" xlink:href="#k"/><use transform="matrix(0.057999999999999906,0,0,0.057999999999999906,265.2919999999995,0)" xlink:href="#l"/><use transform="matrix(0.057999999999999906,0,0,0.057999999999999906,305.42799999999943,0)" xlink:href="#e"/></g></defs></g></svg>